# xmcd
#
# Track frame offsets: 
#        150
#        17546
#        33459
#        50934
#        68585
#        98172
#        113854
#        133892
#        151438
#        174077
#        196130
#        214618
#        233191
#        246471
#        263292
#        277547
#        291377
#        324229
#        338270
#
# Disc length: 4707 seconds
#
# Revision: 0
# Processed by: cddbd v1.5.2PL0 Copyright (c) Steve Scherf et al.
# Submitted via: ExactAudioCopyFreeDBPlugin 1.0
#
DISCID=01126113
DTITLE=Oscar Benton - The Essential
DYEAR=2014
DGENRE=Blues
TTITLE0=Bensonhurst Blues
TTITLE1=I Belive In Love
TTITLE2=Roll On Sweet Mississipp
TTITLE3=Busted
TTITLE4=Somebody's Love Will Do
TTITLE5=St. Louis Blues
TTITLE6=The Three Bells
TTITLE7=Baby Help Me
TTITLE8=Helpless
TTITLE9=If You Go Away
TTITLE10=How Can I Just Start Again
TTITLE11=Today Is Yesterday's Tomorrow
TTITLE12=Stop What You're doing
TTITLE13=It Ain't Nobody's Business
TTITLE14=He's Crazy
TTITLE15=Josie
TTITLE16=I Don't Know
TTITLE17=My Petite Fleur
TTITLE18=Rock'N'Roller
EXTD=
EXTT0=
EXTT1=
EXTT2=
EXTT3=
EXTT4=
EXTT5=
EXTT6=
EXTT7=
EXTT8=
EXTT9=
EXTT10=
EXTT11=
EXTT12=
EXTT13=
EXTT14=
EXTT15=
EXTT16=
EXTT17=
EXTT18=
PLAYORDER=
